<?xml version="1.0" encoding="utf-8"?>
<!-- Generator: Adobe Illustrator 16.0.0, SVG Export Plug-In . SVG Version: 6.00 Build 0)  -->
<!DOCTYPE svg PUBLIC "-//W3C//DTD SVG 1.1//EN" "http://www.w3.org/Graphics/SVG/1.1/DTD/svg11.dtd">
<svg version="1.1" id="Layer_1" xmlns="http://www.w3.org/2000/svg" xmlns:xlink="http://www.w3.org/1999/xlink" x="0px" y="0px"
	 width="1024px" height="768px" viewBox="0 0 1024 768" enable-background="new 0 0 1024 768" xml:space="preserve">
<path id="cloud_x5F_2" fill="#161616" d="M317,410.77c0,0,61.438-10.898,69.438-11.625s49.531,4.359,52.031,4.359
	s50.516-5.813,52.516-7.266s57.008-23.25,63.508-25.43s17.004-27.609,42.004-27.609s37.002,0,43.002,5.086
	s24.001,5.086,28.001,0.727S692,341.746,702.5,341.02s31,4.943,33,4.943S743,348,753,348s49,0,49,0s16.5,4.502,29.5,9.588
	s51.5,20.415,55,20.415s34,1.489,34,1.489l4,33.439c0,0,12,127.068,4.5,127.068s-762.5,13.727-774,13s-5.5-90.645-6.5-92.824
	s-8-28.336-2.5-31.969s70.5-13.805,70.5-13.805s18,1.453,40.5,7.266s27-2.18,44.5-9.445C301.5,412.223,312,404.23,317,410.77z"/>
</svg>
