<?xml version="1.0" encoding="utf-8"?>
<!-- Generator: Adobe Illustrator 16.0.0, SVG Export Plug-In . SVG Version: 6.00 Build 0)  -->
<!DOCTYPE svg PUBLIC "-//W3C//DTD SVG 1.1//EN" "http://www.w3.org/Graphics/SVG/1.1/DTD/svg11.dtd">
<svg version="1.1" id="Layer_1" xmlns="http://www.w3.org/2000/svg" xmlns:xlink="http://www.w3.org/1999/xlink" x="0px" y="0px"
	 width="1280px" height="800px" viewBox="0 0 1280 800" enable-background="new 0 0 1280 800" xml:space="preserve">
<linearGradient id="cloud_x5F_5_1_" gradientUnits="userSpaceOnUse" x1="680.4541" y1="575.8955" x2="636.7385" y2="327.9721">
	<stop  offset="0.7922" style="stop-color:#FFFFFF"/>
	<stop  offset="0.9373" style="stop-color:#F9F8DE"/>
</linearGradient>
<path id="cloud_x5F_5" fill="url(#cloud_x5F_5_1_)" d="M1037,348c0,0-198.332-38.334-211.666-35.667c0,0-20.334,0.501-31.834,15.334
	s-36.333,15.5-36.333,15.5s-21.333-5.668-36.667-0.334S695,360,695,360s-38.93,22.725-52,24c-41,4-63-28-106-32c-86-8-127,47-264,58
	c-5.48,0.44-1.667,109,1,109s781.334-7,780-9S1037,348,1037,348z"/>
</svg>
