<?xml version="1.0" encoding="utf-8"?>
<!-- Generator: Adobe Illustrator 16.0.0, SVG Export Plug-In . SVG Version: 6.00 Build 0)  -->
<!DOCTYPE svg PUBLIC "-//W3C//DTD SVG 1.1//EN" "http://www.w3.org/Graphics/SVG/1.1/DTD/svg11.dtd">
<svg version="1.1" id="Layer_1" xmlns="http://www.w3.org/2000/svg" xmlns:xlink="http://www.w3.org/1999/xlink" x="0px" y="0px"
	 width="1024px" height="768px" viewBox="0 0 1024 768" enable-background="new 0 0 1024 768" xml:space="preserve">
<path id="cloud_x5F_4" fill="#262626" d="M638.189,157.361c0,0-55.634-8.848-65.255-8.059c-9.622,0.79-39.134,2.469-42.546,2.287
	s-2.312-7.949-25.613-7.24c-23.302,0.708-58.058,23.627-65.667,25.176c-7.609,1.548-32.694,9.987-43.542,8.103
	c-10.847-1.886,5.215,4.844-21.534,6.02c-26.748,1.176-162.077-28.387-216.859-2.3c-6.829,3.252-26.181,187.774-13.043,185.218
	C157.268,364.008,739.5,356,739.5,356s-19.247-146.643-16.066-154.949c3.183-8.307,12.721-58.66,3.921-60.435
	C718.554,138.84,638.189,157.361,638.189,157.361z"/>
<path id="cloud_x5F_2" fill="#353535" d="M308,206.77c0,0,61.438-10.898,69.438-11.625s49.531,4.359,52.031,4.359
	s50.516-5.813,52.516-7.266s57.008-23.25,63.508-25.43s17.004-27.609,42.004-27.609s37.002,0,43.002,5.086
	s24.001,5.086,28.001,0.727S683,137.746,693.5,137.02s31,4.943,33,4.943S734,144,744,144s49,0,49,0s16.5,4.502,29.5,9.588
	s51.5,20.415,55,20.415s34,1.489,34,1.489l4,33.439c0,0,12,127.068,4.5,127.068s-762.5,13.727-774,13s-5.5-90.645-6.5-92.824
	s-8-28.336-2.5-31.969s70.5-13.805,70.5-13.805s18,1.453,40.5,7.266s27-2.18,44.5-9.445C292.5,208.223,303,200.23,308,206.77z"/>
<path id="cloud_x5F_5" fill="#3D3D3D" d="M871,217c0,0-198.332-38.334-211.666-35.667c0,0-20.334,0.501-31.834,15.334
	s-36.333,15.5-36.333,15.5s-21.333-5.668-36.667-0.334S529,229,529,229s-38.93,22.725-52,24c-41,4-63-28-106-32c-86-8-127,47-264,58
	c-5.48,0.44-1.667,109,1,109s781.334-7,780-9S871,217,871,217z"/>
</svg>
